<?xml version="1.0" encoding="UTF-8"?>
<svg width="512px" height="512px" viewBox="0 0 512 512" version="1.1" xmlns="http://www.w3.org/2000/svg" xmlns:xlink="http://www.w3.org/1999/xlink">
    <title>iOS</title>
    <defs>
        <linearGradient x1="50%" y1="0%" x2="50%" y2="100%" id="linearGradient-1">
            <stop stop-color="#BA1F2F" offset="0%"></stop>
            <stop stop-color="#87131F" offset="100%"></stop>
        </linearGradient>
    </defs>
    <g id="Page-1" stroke="none" stroke-width="1" fill="none" fill-rule="evenodd">
        <g id="iOS" fill-rule="nonzero">
            <path d="M146.141456,0 L365.858544,0 C416.675112,0 435.102427,5.29105984 453.680205,15.2265641 C472.257983,25.1620684 486.837932,39.7420171 496.773436,58.3197949 C506.70894,76.8975727 512,95.3248882 512,146.141456 L512,365.858544 C512,416.675112 506.70894,435.102427 496.773436,453.680205 C486.837932,472.257983 472.257983,486.837932 453.680205,496.773436 C435.102427,506.70894 416.675112,512 365.858544,512 L146.141456,512 C95.3248882,512 76.8975727,506.70894 58.3197949,496.773436 C39.7420171,486.837932 25.1620684,472.257983 15.2265641,453.680205 C5.29105984,435.102427 0,416.675112 0,365.858544 L0,146.141456 C0,95.3248882 5.29105984,76.8975727 15.2265641,58.3197949 C25.1620684,39.7420171 39.7420171,25.1620684 58.3197949,15.2265641 C76.8975727,5.29105984 95.3248882,0 146.141456,0 Z" id="path-2" fill="url(#linearGradient-1)"></path>
            <g id="car-back-collision-icon" transform="translate(49, 126)" fill="#FFFFFF">
                <path d="M0,61.4959204 L40.5395508,61.4959204 C54.9759159,61.2207283 69.2122039,64.9039724 81.7053223,72.1464203 L125.771484,106.043367 L169.837646,108.978025 C178.835449,108.714236 185.723877,111.813762 188.327637,121.573972 L188.327637,151.250288 C200.786133,154.547656 192.678223,183.168814 187.108154,189.466787 C182.164307,195.105287 177.714844,194.544735 171.123047,194.544735 L131.835938,194.544735 C139.383545,137.731077 81.5405273,125.629735 57.6782227,156.559051 C49.8010254,166.780893 48.614502,180.695787 51.8774414,197.083708 L0,197.083708 L0,61.4959204 Z M143.404541,107.032578 L119.542236,57.3412362 L168.453369,72.5421045 L166.904297,6.59473677 L207.443848,62.3862098 L238.458252,0 L249.23584,65.5187098 L296.630859,40.7554732 L279.294434,96.3820779 L267.429199,92.6890253 L275.866699,65.5846572 L239.611816,84.4456043 L232.459717,39.9970785 L209.388428,86.3251043 L180.252686,46.1631574 L181.274414,89.2927359 L142.976074,77.5211307 L154.610596,101.690841 L143.404541,107.032578 Z M217.529297,160.153182 C218.71582,153.558446 222.077637,149.337814 228.735352,149.074025 C227.990531,142.903538 229.324352,136.660795 232.525635,131.334183 C234.002902,129.03365 235.851782,126.994518 237.996826,125.299999 C245.709229,119.034999 254.476318,118.375525 263.902588,116.62792 C273.328857,114.880315 282.293701,113.561367 291.489258,112.473236 C302.629395,111.154288 313.736572,110.263999 324.876709,109.967236 C330.018311,109.802367 328.765869,109.967236 332.852783,106.933657 C352.971504,91.6553166 374.633764,78.5261776 397.485352,67.7609203 C399.914783,66.5993661 402.426466,65.618491 405,64.8262624 L405,73.4323939 C400.772138,75.1408038 396.655215,77.1120815 392.67334,79.3346833 C381.434326,85.3029201 371.217041,91.8317095 360.307617,99.1188936 C358.033447,100.602709 355.759277,102.119499 353.518066,103.669262 L353.518066,117.221446 L405,117.221446 L405,195.303129 L334.533691,195.303129 C343.564453,153.789261 316.702881,136.873762 292.049561,139.247867 C260.343018,142.347393 251.971436,167.803077 257.442627,195.764761 L229.954834,195.764761 C222.110596,196.094498 218.485107,189.829498 217.562256,179.277919 L217.562256,160.153182 L217.529297,160.153182 Z M299.926758,165.494919 L299.926758,176.87084 L311.297607,176.87084 C309.912127,171.261059 305.534038,166.881018 299.926758,165.494919 L299.926758,165.494919 Z M311.297607,184.256945 L299.926758,184.256945 L299.926758,195.632866 C305.534038,194.246768 309.912127,189.866726 311.297607,184.256945 L311.297607,184.256945 Z M292.543945,195.632866 L292.543945,184.256945 L281.206055,184.256945 C282.579284,189.861796 286.945603,194.242761 292.543945,195.632866 L292.543945,195.632866 Z M281.206055,176.87084 L292.543945,176.87084 L292.543945,165.494919 C286.945603,166.885025 282.579284,171.265989 281.206055,176.87084 Z M296.235352,149.041051 C313.637175,149.041051 327.744141,163.154308 327.744141,180.563893 C327.744141,197.973478 313.637175,212.086735 296.235352,212.086735 C278.833528,212.086735 264.726562,197.973478 264.726562,180.563893 C264.726562,163.154308 278.833528,149.041051 296.235352,149.041051 Z M91.1645508,150.096055 C104.090888,150.056171 115.766682,157.815468 120.741132,169.7517 C125.715581,181.687932 123.007625,195.447035 113.881463,204.605622 C104.755301,213.764209 91.0107946,216.516024 79.0645164,211.576391 C67.1182383,206.636758 59.3261719,194.979872 59.3261719,182.047709 C59.3261719,164.401383 73.6249684,150.096055 91.2634277,150.096055 L91.1645508,150.096055 Z M94.921875,166.780893 L94.921875,178.288709 L106.424561,178.288709 C105.032893,172.608316 100.599735,168.173181 94.921875,166.780893 Z M106.424561,185.806708 L94.921875,185.806708 L94.921875,197.28155 C100.59102,195.894808 105.022174,191.474379 106.424561,185.806708 L106.424561,185.806708 Z M87.4401855,197.28155 L87.4401855,185.806708 L75.8056641,185.806708 C77.2080502,191.474379 81.6392048,195.894808 87.3083496,197.28155 L87.4401855,197.28155 Z M75.8056641,178.288709 L87.3083496,178.288709 L87.3083496,166.780893 C81.6304893,168.173181 77.1973316,172.608316 75.8056641,178.288709 L75.8056641,178.288709 Z M65.9179687,118.144709 L71.8835449,82.7639465 L92.9772949,109.406683 L88.9892578,113.891104 L85.2319336,118.144709 L65.9179687,118.144709 Z M11.6674805,70.4977361 L11.6674805,117.814972 L59.3261719,117.814972 L65.6872559,75.6416307 C53.1958008,72.0474992 38.3972168,71.025315 11.8322754,70.4977361 L11.6674805,70.4977361 Z" id="Shape"></path>
            </g>
        </g>
    </g>
</svg>